<svg xmlns="http://www.w3.org/2000/svg" xmlns:xlink="http://www.w3.org/1999/xlink" width="1080" zoomAndPan="magnify" viewBox="0 0 810 809.999993" height="1080" preserveAspectRatio="xMidYMid meet" version="1.0"><defs><g/></defs><rect x="-81" width="972" fill="#ffffff" y="-80.999999" height="971.999992" fill-opacity="1"/><rect x="-81" width="972" fill="#f9f7f8" y="-80.999999" height="971.999992" fill-opacity="1"/><g fill="#3a5c85" fill-opacity="1"><g transform="translate(105.966363, 539.390873)"><g><path d="M 32.625 -49 C 35.332031 -49 37.828125 -48.332031 40.109375 -47 C 42.398438 -45.675781 44.234375 -43.878906 45.609375 -41.609375 C 46.984375 -39.347656 47.671875 -36.796875 47.671875 -33.953125 C 47.671875 -31.054688 46.957031 -28.441406 45.53125 -26.109375 C 44.113281 -23.773438 42.222656 -21.921875 39.859375 -20.546875 C 37.503906 -19.171875 34.90625 -18.484375 32.0625 -18.484375 L 16.796875 -18.484375 L 16.796875 0 L 9.234375 0 L 9.234375 -49 Z M 31.703125 -25.765625 C 33.148438 -25.765625 34.492188 -26.132812 35.734375 -26.875 C 36.972656 -27.625 37.960938 -28.613281 38.703125 -29.84375 C 39.453125 -31.082031 39.828125 -32.453125 39.828125 -33.953125 C 39.828125 -35.398438 39.453125 -36.707031 38.703125 -37.875 C 37.960938 -39.039062 36.972656 -39.972656 35.734375 -40.671875 C 34.492188 -41.367188 33.148438 -41.71875 31.703125 -41.71875 L 16.796875 -41.71875 L 16.796875 -25.765625 Z M 31.703125 -25.765625 "/></g></g></g><g fill="#3a5c85" fill-opacity="1"><g transform="translate(163.433439, 539.390873)"><g><path d="M 43.6875 -7.28125 L 43.6875 0 L 9.234375 0 L 9.234375 -49 L 16.796875 -49 L 16.796875 -7.28125 Z M 43.6875 -7.28125 "/></g></g></g><g fill="#3a5c85" fill-opacity="1"><g transform="translate(217.330692, 539.390873)"><g><path d="M 9.234375 -49 L 44.03125 -49 L 44.03125 -41.71875 L 16.796875 -41.71875 L 16.796875 -28.765625 L 40.1875 -28.765625 L 40.1875 -21.484375 L 16.796875 -21.484375 L 16.796875 -7.28125 L 44.03125 -7.28125 L 44.03125 0 L 9.234375 0 Z M 9.234375 -49 "/></g></g></g><g fill="#3a5c85" fill-opacity="1"><g transform="translate(273.117856, 539.390873)"><g><path d="M 45.359375 0 L 40.3125 -11.90625 L 16.515625 -11.90625 L 11.40625 0 L 3.640625 0 L 24.5625 -49 L 32.765625 -49 L 53.546875 0 Z M 24.640625 -30.9375 L 19.59375 -19.1875 L 37.234375 -19.1875 L 32.0625 -31.21875 C 31.457031 -32.757812 30.847656 -34.332031 30.234375 -35.9375 C 29.628906 -37.550781 29.023438 -39.222656 28.421875 -40.953125 C 27.765625 -39.179688 27.132812 -37.453125 26.53125 -35.765625 C 25.925781 -34.085938 25.296875 -32.476562 24.640625 -30.9375 Z M 24.640625 -30.9375 "/></g></g></g><g fill="#3a5c85" fill-opacity="1"><g transform="translate(334.434735, 539.390873)"><g><path d="M 10.703125 -14.90625 C 12.941406 -12.101562 15.296875 -9.929688 17.765625 -8.390625 C 20.242188 -6.859375 23.351562 -6.09375 27.09375 -6.09375 C 29 -6.09375 30.835938 -6.359375 32.609375 -6.890625 C 34.390625 -7.429688 35.835938 -8.222656 36.953125 -9.265625 C 38.078125 -10.316406 38.640625 -11.640625 38.640625 -13.234375 C 38.640625 -15.566406 37.472656 -17.28125 35.140625 -18.375 C 32.804688 -19.46875 29.539062 -20.34375 25.34375 -21 C 20.070312 -21.882812 15.882812 -23.457031 12.78125 -25.71875 C 9.675781 -27.988281 8.125 -31.316406 8.125 -35.703125 C 8.125 -38.597656 8.984375 -41.09375 10.703125 -43.1875 C 12.429688 -45.289062 14.71875 -46.898438 17.5625 -48.015625 C 20.414062 -49.140625 23.546875 -49.703125 26.953125 -49.703125 C 31.242188 -49.703125 34.960938 -48.953125 38.109375 -47.453125 C 41.265625 -45.960938 43.726562 -43.84375 45.5 -41.09375 L 40.3125 -35.703125 C 38.820312 -37.847656 36.945312 -39.582031 34.6875 -40.90625 C 32.425781 -42.238281 29.773438 -42.90625 26.734375 -42.90625 C 23.703125 -42.90625 21.144531 -42.3125 19.0625 -41.125 C 16.988281 -39.9375 15.953125 -38.269531 15.953125 -36.125 C 15.953125 -33.644531 17.050781 -31.867188 19.25 -30.796875 C 21.445312 -29.722656 24.363281 -28.882812 28 -28.28125 C 30.375 -27.90625 32.660156 -27.390625 34.859375 -26.734375 C 37.054688 -26.085938 39.03125 -25.238281 40.78125 -24.1875 C 42.53125 -23.132812 43.914062 -21.847656 44.9375 -20.328125 C 45.96875 -18.816406 46.484375 -16.960938 46.484375 -14.765625 C 46.484375 -11.640625 45.675781 -8.921875 44.0625 -6.609375 C 42.457031 -4.304688 40.160156 -2.507812 37.171875 -1.21875 C 34.179688 0.0625 30.65625 0.703125 26.59375 0.703125 C 22.300781 0.703125 18.40625 -0.0390625 14.90625 -1.53125 C 11.40625 -3.03125 8.328125 -5.457031 5.671875 -8.8125 Z M 10.703125 -14.90625 "/></g></g></g><g fill="#3a5c85" fill-opacity="1"><g transform="translate(390.921854, 539.390873)"><g><path d="M 45.359375 0 L 40.3125 -11.90625 L 16.515625 -11.90625 L 11.40625 0 L 3.640625 0 L 24.5625 -49 L 32.765625 -49 L 53.546875 0 Z M 24.640625 -30.9375 L 19.59375 -19.1875 L 37.234375 -19.1875 L 32.0625 -31.21875 C 31.457031 -32.757812 30.847656 -34.332031 30.234375 -35.9375 C 29.628906 -37.550781 29.023438 -39.222656 28.421875 -40.953125 C 27.765625 -39.179688 27.132812 -37.453125 26.53125 -35.765625 C 25.925781 -34.085938 25.296875 -32.476562 24.640625 -30.9375 Z M 24.640625 -30.9375 "/></g></g></g><g fill="#3a5c85" fill-opacity="1"><g transform="translate(452.238723, 539.390873)"><g><path d="M 47.953125 -49 L 55.515625 -49 L 55.515625 0 L 48.296875 0 L 15.546875 -37.875 C 15.816406 -34.976562 16.09375 -32.070312 16.375 -29.15625 C 16.65625 -26.238281 16.796875 -23.3125 16.796875 -20.375 L 16.796875 0 L 9.234375 0 L 9.234375 -49 L 16.3125 -49 L 49.0625 -10.21875 C 48.738281 -12.507812 48.492188 -14.957031 48.328125 -17.5625 C 48.171875 -20.175781 48.066406 -22.800781 48.015625 -25.4375 C 47.972656 -28.082031 47.953125 -30.570312 47.953125 -32.90625 Z M 47.953125 -49 "/></g></g></g><g fill="#3a5c85" fill-opacity="1"><g transform="translate(521.0452, 539.390873)"><g><path d="M 19.953125 0 L 19.953125 -41.71875 L 4.265625 -41.71875 L 4.265625 -49 L 43.609375 -49 L 43.609375 -41.71875 L 27.515625 -41.71875 L 27.515625 0 Z M 19.953125 0 "/></g></g></g><g fill="#3a5c85" fill-opacity="1"><g transform="translate(570.952607, 539.390873)"><g><path d="M 58.09375 -24.5 C 58.09375 -20.957031 57.453125 -17.65625 56.171875 -14.59375 C 54.890625 -11.539062 53.070312 -8.867188 50.71875 -6.578125 C 48.363281 -4.296875 45.585938 -2.507812 42.390625 -1.21875 C 39.191406 0.0625 35.675781 0.703125 31.84375 0.703125 C 28.019531 0.703125 24.5 0.0625 21.28125 -1.21875 C 18.0625 -2.507812 15.285156 -4.296875 12.953125 -6.578125 C 10.617188 -8.867188 8.804688 -11.539062 7.515625 -14.59375 C 6.234375 -17.65625 5.59375 -20.957031 5.59375 -24.5 C 5.59375 -28.039062 6.234375 -31.335938 7.515625 -34.390625 C 8.804688 -37.453125 10.617188 -40.125 12.953125 -42.40625 C 15.285156 -44.695312 18.0625 -46.484375 21.28125 -47.765625 C 24.5 -49.054688 28.019531 -49.703125 31.84375 -49.703125 C 35.675781 -49.703125 39.191406 -49.054688 42.390625 -47.765625 C 45.585938 -46.484375 48.363281 -44.695312 50.71875 -42.40625 C 53.070312 -40.125 54.890625 -37.453125 56.171875 -34.390625 C 57.453125 -31.335938 58.09375 -28.039062 58.09375 -24.5 Z M 50.40625 -24.5 C 50.40625 -27.90625 49.609375 -30.945312 48.015625 -33.625 C 46.429688 -36.3125 44.238281 -38.4375 41.4375 -40 C 38.632812 -41.5625 35.4375 -42.34375 31.84375 -42.34375 C 28.15625 -42.34375 24.921875 -41.5625 22.140625 -40 C 19.367188 -38.4375 17.203125 -36.3125 15.640625 -33.625 C 14.078125 -30.945312 13.296875 -27.90625 13.296875 -24.5 C 13.296875 -21.09375 14.078125 -18.046875 15.640625 -15.359375 C 17.203125 -12.679688 19.367188 -10.5625 22.140625 -9 C 24.921875 -7.4375 28.15625 -6.65625 31.84375 -6.65625 C 35.4375 -6.65625 38.632812 -7.4375 41.4375 -9 C 44.238281 -10.5625 46.429688 -12.691406 48.015625 -15.390625 C 49.609375 -18.097656 50.40625 -21.132812 50.40625 -24.5 Z M 50.40625 -24.5 "/></g></g></g><g fill="#3a5c85" fill-opacity="1"><g transform="translate(638.779127, 539.390873)"><g><path d="M 47.953125 -49 L 55.515625 -49 L 55.515625 0 L 48.296875 0 L 15.546875 -37.875 C 15.816406 -34.976562 16.09375 -32.070312 16.375 -29.15625 C 16.65625 -26.238281 16.796875 -23.3125 16.796875 -20.375 L 16.796875 0 L 9.234375 0 L 9.234375 -49 L 16.3125 -49 L 49.0625 -10.21875 C 48.738281 -12.507812 48.492188 -14.957031 48.328125 -17.5625 C 48.171875 -20.175781 48.066406 -22.800781 48.015625 -25.4375 C 47.972656 -28.082031 47.953125 -30.570312 47.953125 -32.90625 Z M 47.953125 -49 "/></g></g></g><path fill="#3a5c85" d="M 287.507812 159.660156 L 286.570312 159.792969 L 286.832031 262.738281 C 286.976562 319.359375 287.09375 379.609375 287.089844 396.628906 L 287.082031 427.570312 L 400.71875 427.570312 L 400.507812 358.078125 L 418.859375 358.074219 C 428.953125 358.074219 437.824219 357.992188 438.578125 357.890625 C 439.328125 357.792969 440.820312 357.601562 441.894531 357.46875 C 444.367188 357.164062 445.847656 356.9375 449.410156 356.324219 C 453.847656 355.558594 465.441406 351.800781 470.203125 349.582031 C 475.160156 347.269531 476 346.84375 478.792969 345.214844 C 496.847656 334.667969 512.03125 318.269531 520.644531 300.007812 C 525.277344 290.191406 528.261719 279.726562 529.449219 269.167969 C 529.839844 265.6875 529.808594 249.699219 529.402344 246.222656 C 529.082031 243.46875 529.015625 243.070312 528.625 241.328125 C 528.503906 240.789062 528.3125 239.734375 528.203125 238.984375 C 528.09375 238.234375 527.914062 237.222656 527.800781 236.738281 C 527.679688 236.210938 527.558594 235.679688 527.441406 235.152344 C 526.777344 232.1875 524.523438 225.140625 523.046875 221.414062 C 512.289062 194.246094 490.265625 173.292969 462.945312 164.246094 C 457.605469 162.476562 451.421875 161.101562 445.21875 160.300781 C 440.898438 159.746094 431.664062 159.664062 364.394531 159.601562 C 322.625 159.5625 288.027344 159.585938 287.507812 159.660156 M 299.1875 293.992188 L 299.1875 415.871094 L 302.113281 415.796875 L 305.042969 415.722656 L 305.042969 334.714844 L 306.140625 333.800781 C 306.742188 333.296875 308.671875 332.097656 310.425781 331.128906 L 313.613281 329.375 L 313.722656 313.5625 L 313.828125 297.753906 L 317.734375 295.289062 C 319.878906 293.933594 321.988281 292.671875 322.417969 292.492188 C 322.847656 292.3125 323.867188 291.707031 324.679688 291.148438 C 325.496094 290.589844 326.261719 290.132812 326.378906 290.132812 C 326.5 290.132812 327.328125 289.648438 328.21875 289.058594 C 329.109375 288.46875 330.496094 287.636719 331.300781 287.214844 L 332.765625 286.441406 L 332.777344 269.644531 L 332.789062 252.84375 L 334.632812 251.722656 C 335.644531 251.105469 339.023438 249.125 342.136719 247.316406 C 345.25 245.511719 348.0625 243.867188 348.382812 243.664062 C 349.820312 242.757812 353.394531 240.742188 354.726562 240.082031 L 356.191406 239.355469 L 356.191406 231.8125 C 356.191406 225.109375 356.269531 224.203125 356.875 223.6875 C 357.519531 223.140625 360.425781 221.328125 363.023438 219.851562 C 363.667969 219.484375 366.65625 217.734375 369.664062 215.960938 C 372.667969 214.1875 375.742188 212.386719 376.496094 211.953125 C 378.675781 210.703125 383.664062 207.753906 384.304688 207.339844 C 384.625 207.128906 386.179688 206.261719 387.757812 205.410156 C 390.414062 203.976562 390.703125 203.902344 391.664062 204.398438 C 392.230469 204.695312 397.535156 208.34375 403.441406 212.511719 C 409.351562 216.675781 417.828125 222.59375 422.277344 225.664062 C 426.730469 228.730469 430.496094 231.445312 430.652344 231.695312 C 431.027344 232.300781 431.054688 233.144531 431.109375 245.476562 L 431.160156 256.066406 L 437.472656 260.507812 C 440.945312 262.949219 444.292969 265.390625 444.917969 265.925781 L 446.046875 266.90625 L 446.015625 273.542969 L 445.984375 280.175781 L 453.839844 285.839844 C 458.160156 288.953125 462.550781 292.160156 463.597656 292.964844 L 465.5 294.429688 L 465.605469 300.773438 L 465.714844 307.117188 L 470.007812 302.792969 C 480.75 291.976562 486.851562 279.402344 488.46875 264.753906 C 488.820312 261.585938 488.824219 254.386719 488.480469 251.285156 C 488.113281 247.992188 486.753906 241.667969 486.058594 239.996094 C 485.734375 239.226562 485.542969 238.59375 485.628906 238.59375 C 485.886719 238.59375 483.644531 233.53125 482.082031 230.589844 C 474.75 216.78125 461.984375 206.5625 446.4375 202.054688 C 439.125 199.9375 437.726562 199.835938 413.492188 199.652344 L 390.941406 199.480469 L 390.941406 187.835938 L 409.390625 187.800781 C 430.476562 187.761719 436.574219 187.808594 437.40625 188.019531 C 437.726562 188.105469 439.019531 188.28125 440.277344 188.417969 C 451.046875 189.578125 463.246094 194.648438 473.066406 202.046875 C 478.5 206.144531 485.871094 213.9375 489.714844 219.65625 C 491.75 222.679688 496.058594 231.28125 496.558594 233.324219 C 496.613281 233.539062 497.117188 235.164062 497.675781 236.941406 C 498.238281 238.714844 498.792969 240.734375 498.910156 241.429688 C 499.027344 242.125 499.214844 242.988281 499.320312 243.347656 C 499.59375 244.238281 499.863281 245.609375 500.46875 249.140625 C 500.789062 251.003906 500.800781 263.519531 500.488281 266.316406 C 499.597656 274.242188 497.015625 283.03125 493.550781 289.933594 C 486.636719 303.707031 473.621094 316.707031 459.832031 323.617188 C 457.417969 324.828125 450.558594 327.609375 449.46875 327.820312 C 449.121094 327.886719 447.628906 328.289062 446.148438 328.71875 C 444.667969 329.144531 442.753906 329.625 441.894531 329.789062 C 441.035156 329.953125 440.070312 330.140625 439.75 330.210938 C 439.425781 330.28125 438.285156 330.445312 437.210938 330.570312 C 436.136719 330.699219 434.292969 330.957031 433.109375 331.144531 C 431.929688 331.332031 421.300781 331.394531 409.488281 331.28125 L 388.011719 331.074219 L 387.820312 275.09375 L 387.625 219.109375 L 377.570312 225.042969 L 367.519531 230.980469 L 367.519531 235.738281 L 367.515625 240.496094 L 373.664062 244.726562 L 379.8125 248.953125 L 379.914062 332.40625 L 380.011719 415.859375 L 388.597656 415.859375 L 388.597656 345.773438 L 410.953125 345.773438 C 430.632812 345.773438 438.183594 345.59375 441.699219 345.039062 C 442.238281 344.953125 443.496094 344.765625 444.496094 344.617188 C 446.007812 344.398438 448.617188 343.769531 455.804688 341.902344 C 456.691406 341.671875 461.351562 339.859375 464.152344 338.65625 C 470.378906 335.980469 478.886719 330.65625 484.570312 325.878906 C 502.644531 310.683594 513.894531 289.90625 516.5 266.902344 C 516.84375 263.875 516.847656 253.96875 516.507812 250.699219 C 516.234375 248.070312 516.164062 247.527344 515.695312 244.253906 C 515.433594 242.457031 514.222656 236.71875 513.714844 234.886719 C 513.59375 234.457031 513.433594 233.839844 513.355469 233.519531 C 513.277344 233.195312 513.183594 232.933594 513.152344 232.933594 C 513.121094 232.933594 513.035156 232.632812 512.964844 232.265625 C 512.710938 230.949219 511.488281 227.457031 511.152344 227.09375 C 510.964844 226.890625 510.808594 226.449219 510.808594 226.109375 C 510.808594 224.925781 505.417969 214.535156 502.695312 210.476562 C 491.390625 193.613281 475.28125 181.734375 455.90625 175.964844 C 450.453125 174.34375 444.6875 173.359375 437.40625 172.808594 C 436.222656 172.71875 404.640625 172.523438 367.222656 172.378906 L 299.1875 172.109375 Z M 399.140625 272.160156 L 399.140625 320.199219 L 409.757812 320.199219 L 409.621094 284.308594 C 409.550781 264.570312 409.628906 248.28125 409.796875 248.113281 C 409.96875 247.941406 412.121094 248.804688 414.585938 250.03125 C 417.046875 251.257812 419.152344 252.261719 419.261719 252.261719 C 419.371094 252.261719 419.414062 249.058594 419.355469 245.148438 L 419.25 238.035156 L 409.878906 231.472656 C 404.726562 227.863281 400.199219 224.734375 399.824219 224.515625 C 399.175781 224.140625 399.140625 226.515625 399.140625 272.160156 M 358.144531 251.878906 C 357.179688 252.492188 355.15625 253.640625 353.652344 254.429688 C 352.152344 255.21875 350.453125 256.199219 349.882812 256.601562 C 349.316406 257.003906 348.746094 257.335938 348.621094 257.335938 C 348.496094 257.335938 347.511719 257.878906 346.4375 258.539062 L 344.476562 259.746094 L 344.476562 270.691406 C 344.476562 280.785156 344.527344 281.597656 345.117188 281.101562 C 346.859375 279.640625 356.503906 274.273438 356.789062 274.609375 C 356.835938 274.664062 357.003906 299.398438 357.15625 329.570312 C 357.308594 359.742188 357.480469 388.820312 357.535156 394.1875 L 357.691406 409.914062 L 357.753906 415.878906 L 362.925781 415.773438 L 368.101562 415.664062 L 368.101562 256.015625 L 364.230469 253.355469 C 362.101562 251.894531 360.253906 250.710938 360.128906 250.730469 C 360.003906 250.746094 359.109375 251.261719 358.144531 251.878906 M 420.753906 279.054688 C 420.882812 287.617188 420.996094 300.402344 421 307.460938 L 421.007812 320.300781 L 427.742188 320.0625 C 434.851562 319.808594 437.25 319.585938 439.164062 319.015625 C 439.808594 318.820312 440.773438 318.585938 441.308594 318.488281 C 443.25 318.140625 448.589844 316.238281 451.070312 315.011719 L 453.609375 313.753906 L 453.609375 300.105469 L 445.410156 294.152344 C 440.898438 290.875 436.550781 287.65625 435.746094 286.996094 L 434.28125 285.792969 L 434.28125 273.078125 L 427.832031 268.425781 C 424.285156 265.871094 421.1875 263.710938 420.949219 263.632812 C 420.632812 263.523438 420.578125 267.703125 420.753906 279.054688 M 343.113281 293.183594 C 341.023438 294.507812 334.421875 298.398438 328.738281 301.652344 C 327.613281 302.296875 326.386719 303.007812 326.015625 303.234375 C 325.390625 303.609375 325.339844 304.464844 325.4375 313.285156 L 325.542969 322.925781 L 327.820312 321.554688 C 329.070312 320.800781 331.40625 319.464844 333.011719 318.582031 L 335.925781 316.984375 L 335.796875 366.421875 L 335.671875 415.859375 L 346.039062 415.859375 L 346.039062 353.777344 C 346.039062 319.632812 345.910156 291.695312 345.746094 291.699219 C 345.585938 291.699219 344.398438 292.371094 343.113281 293.183594 M 322.808594 336.53125 C 322.164062 336.902344 320.449219 337.871094 319 338.691406 L 316.367188 340.179688 L 316.367188 415.753906 L 320.269531 415.765625 L 324.175781 415.777344 L 324.175781 375.796875 C 324.175781 353.808594 324.132812 335.824219 324.078125 335.839844 C 324.023438 335.851562 323.453125 336.164062 322.808594 336.53125 " fill-opacity="1" fill-rule="evenodd"/><g fill="#3a5c85" fill-opacity="1"><g transform="translate(131.313791, 619.789021)"><g><path d="M 28.71875 -3.71875 C 28.082031 -3.082031 27.207031 -2.445312 26.09375 -1.8125 C 24.988281 -1.1875 23.71875 -0.660156 22.28125 -0.234375 C 20.84375 0.191406 19.3125 0.40625 17.6875 0.40625 C 15.65625 0.40625 13.757812 0.0664062 12 -0.609375 C 10.238281 -1.296875 8.695312 -2.265625 7.375 -3.515625 C 6.0625 -4.773438 5.035156 -6.289062 4.296875 -8.0625 C 3.566406 -9.832031 3.203125 -11.8125 3.203125 -14 C 3.203125 -16.050781 3.585938 -17.941406 4.359375 -19.671875 C 5.128906 -21.410156 6.203125 -22.921875 7.578125 -24.203125 C 8.953125 -25.484375 10.519531 -26.472656 12.28125 -27.171875 C 14.039062 -27.878906 15.90625 -28.234375 17.875 -28.234375 C 19.53125 -28.234375 21.082031 -28 22.53125 -27.53125 C 23.988281 -27.070312 25.285156 -26.484375 26.421875 -25.765625 C 27.554688 -25.046875 28.457031 -24.285156 29.125 -23.484375 L 26.359375 -20.203125 C 25.179688 -21.296875 23.878906 -22.191406 22.453125 -22.890625 C 21.023438 -23.597656 19.445312 -23.953125 17.71875 -23.953125 C 16.007812 -23.953125 14.378906 -23.550781 12.828125 -22.75 C 11.285156 -21.957031 10.023438 -20.8125 9.046875 -19.3125 C 8.078125 -17.820312 7.59375 -16.050781 7.59375 -14 C 7.59375 -11.757812 8.09375 -9.890625 9.09375 -8.390625 C 10.09375 -6.898438 11.398438 -5.773438 13.015625 -5.015625 C 14.628906 -4.253906 16.367188 -3.875 18.234375 -3.875 C 20.128906 -3.875 21.769531 -4.238281 23.15625 -4.96875 C 24.539062 -5.707031 25.6875 -6.476562 26.59375 -7.28125 Z M 28.71875 -3.71875 "/></g></g></g><g fill="#3a5c85" fill-opacity="1"><g transform="translate(165.670601, 619.789021)"><g><path d="M 33.203125 -14 C 33.203125 -11.96875 32.832031 -10.078125 32.09375 -8.328125 C 31.363281 -6.585938 30.320312 -5.0625 28.96875 -3.75 C 27.625 -2.445312 26.039062 -1.425781 24.21875 -0.6875 C 22.394531 0.0390625 20.390625 0.40625 18.203125 0.40625 C 16.015625 0.40625 14 0.0390625 12.15625 -0.6875 C 10.320312 -1.425781 8.738281 -2.445312 7.40625 -3.75 C 6.070312 -5.0625 5.035156 -6.585938 4.296875 -8.328125 C 3.566406 -10.078125 3.203125 -11.96875 3.203125 -14 C 3.203125 -16.03125 3.566406 -17.914062 4.296875 -19.65625 C 5.035156 -21.40625 6.070312 -22.929688 7.40625 -24.234375 C 8.738281 -25.546875 10.320312 -26.566406 12.15625 -27.296875 C 14 -28.035156 16.015625 -28.40625 18.203125 -28.40625 C 20.390625 -28.40625 22.394531 -28.035156 24.21875 -27.296875 C 26.039062 -26.566406 27.625 -25.546875 28.96875 -24.234375 C 30.320312 -22.929688 31.363281 -21.40625 32.09375 -19.65625 C 32.832031 -17.914062 33.203125 -16.03125 33.203125 -14 Z M 28.796875 -14 C 28.796875 -15.945312 28.34375 -17.6875 27.4375 -19.21875 C 26.53125 -20.75 25.273438 -21.960938 23.671875 -22.859375 C 22.078125 -23.753906 20.253906 -24.203125 18.203125 -24.203125 C 16.097656 -24.203125 14.25 -23.753906 12.65625 -22.859375 C 11.070312 -21.960938 9.832031 -20.75 8.9375 -19.21875 C 8.039062 -17.6875 7.59375 -15.945312 7.59375 -14 C 7.59375 -12.050781 8.039062 -10.3125 8.9375 -8.78125 C 9.832031 -7.25 11.070312 -6.035156 12.65625 -5.140625 C 14.25 -4.242188 16.097656 -3.796875 18.203125 -3.796875 C 20.253906 -3.796875 22.078125 -4.242188 23.671875 -5.140625 C 25.273438 -6.035156 26.53125 -7.253906 27.4375 -8.796875 C 28.34375 -10.347656 28.796875 -12.082031 28.796875 -14 Z M 28.796875 -14 "/></g></g></g><g fill="#3a5c85" fill-opacity="1"><g transform="translate(204.426977, 619.789021)"><g><path d="M 9.515625 -28 L 19.796875 -13.046875 L 30.203125 -28 L 34.28125 -28 L 34.28125 0 L 29.953125 0 L 29.953125 -11.640625 C 29.953125 -13.347656 29.984375 -14.96875 30.046875 -16.5 C 30.117188 -18.03125 30.238281 -19.554688 30.40625 -21.078125 L 21.046875 -8.046875 L 18.40625 -8.046875 L 9.15625 -21.046875 C 9.320312 -19.523438 9.4375 -18.003906 9.5 -16.484375 C 9.5625 -14.960938 9.59375 -13.347656 9.59375 -11.640625 L 9.59375 0 L 5.28125 0 L 5.28125 -28 Z M 9.515625 -28 "/></g></g></g><g fill="#3a5c85" fill-opacity="1"><g transform="translate(246.343033, 619.789021)"><g><path d="M 9.515625 -28 L 19.796875 -13.046875 L 30.203125 -28 L 34.28125 -28 L 34.28125 0 L 29.953125 0 L 29.953125 -11.640625 C 29.953125 -13.347656 29.984375 -14.96875 30.046875 -16.5 C 30.117188 -18.03125 30.238281 -19.554688 30.40625 -21.078125 L 21.046875 -8.046875 L 18.40625 -8.046875 L 9.15625 -21.046875 C 9.320312 -19.523438 9.4375 -18.003906 9.5 -16.484375 C 9.5625 -14.960938 9.59375 -13.347656 9.59375 -11.640625 L 9.59375 0 L 5.28125 0 L 5.28125 -28 Z M 9.515625 -28 "/></g></g></g><g fill="#3a5c85" fill-opacity="1"><g transform="translate(288.259089, 619.789021)"><g><path d="M 5.28125 -28 L 25.15625 -28 L 25.15625 -23.84375 L 9.59375 -23.84375 L 9.59375 -16.4375 L 22.953125 -16.4375 L 22.953125 -12.28125 L 9.59375 -12.28125 L 9.59375 -4.15625 L 25.15625 -4.15625 L 25.15625 0 L 5.28125 0 Z M 5.28125 -28 "/></g></g></g><g fill="#3a5c85" fill-opacity="1"><g transform="translate(320.136147, 619.789021)"><g><path d="M 27.875 -19.203125 C 27.875 -17.390625 27.328125 -15.742188 26.234375 -14.265625 C 25.140625 -12.785156 23.742188 -11.710938 22.046875 -11.046875 L 29.234375 0.046875 L 23.921875 0 L 17.234375 -10.4375 L 9.59375 -10.4375 L 9.59375 0 L 5.28125 0 L 5.28125 -28 L 18.953125 -28 C 20.472656 -28 21.910156 -27.628906 23.265625 -26.890625 C 24.628906 -26.160156 25.738281 -25.128906 26.59375 -23.796875 C 27.445312 -22.460938 27.875 -20.929688 27.875 -19.203125 Z M 18.046875 -23.84375 L 9.59375 -23.84375 L 9.59375 -14.59375 L 18.71875 -14.59375 C 19.65625 -14.59375 20.472656 -14.804688 21.171875 -15.234375 C 21.878906 -15.660156 22.425781 -16.226562 22.8125 -16.9375 C 23.207031 -17.644531 23.40625 -18.410156 23.40625 -19.234375 C 23.40625 -20.140625 23.160156 -20.941406 22.671875 -21.640625 C 22.191406 -22.335938 21.546875 -22.878906 20.734375 -23.265625 C 19.921875 -23.648438 19.023438 -23.84375 18.046875 -23.84375 Z M 18.046875 -23.84375 "/></g></g></g><g fill="#3a5c85" fill-opacity="1"><g transform="translate(354.932891, 619.789021)"><g><path d="M 28.71875 -3.71875 C 28.082031 -3.082031 27.207031 -2.445312 26.09375 -1.8125 C 24.988281 -1.1875 23.71875 -0.660156 22.28125 -0.234375 C 20.84375 0.191406 19.3125 0.40625 17.6875 0.40625 C 15.65625 0.40625 13.757812 0.0664062 12 -0.609375 C 10.238281 -1.296875 8.695312 -2.265625 7.375 -3.515625 C 6.0625 -4.773438 5.035156 -6.289062 4.296875 -8.0625 C 3.566406 -9.832031 3.203125 -11.8125 3.203125 -14 C 3.203125 -16.050781 3.585938 -17.941406 4.359375 -19.671875 C 5.128906 -21.410156 6.203125 -22.921875 7.578125 -24.203125 C 8.953125 -25.484375 10.519531 -26.472656 12.28125 -27.171875 C 14.039062 -27.878906 15.90625 -28.234375 17.875 -28.234375 C 19.53125 -28.234375 21.082031 -28 22.53125 -27.53125 C 23.988281 -27.070312 25.285156 -26.484375 26.421875 -25.765625 C 27.554688 -25.046875 28.457031 -24.285156 29.125 -23.484375 L 26.359375 -20.203125 C 25.179688 -21.296875 23.878906 -22.191406 22.453125 -22.890625 C 21.023438 -23.597656 19.445312 -23.953125 17.71875 -23.953125 C 16.007812 -23.953125 14.378906 -23.550781 12.828125 -22.75 C 11.285156 -21.957031 10.023438 -20.8125 9.046875 -19.3125 C 8.078125 -17.820312 7.59375 -16.050781 7.59375 -14 C 7.59375 -11.757812 8.09375 -9.890625 9.09375 -8.390625 C 10.09375 -6.898438 11.398438 -5.773438 13.015625 -5.015625 C 14.628906 -4.253906 16.367188 -3.875 18.234375 -3.875 C 20.128906 -3.875 21.769531 -4.238281 23.15625 -4.96875 C 24.539062 -5.707031 25.6875 -6.476562 26.59375 -7.28125 Z M 28.71875 -3.71875 "/></g></g></g><g fill="#3a5c85" fill-opacity="1"><g transform="translate(389.2897, 619.789021)"><g><path d="M 20.359375 0 L 4.765625 0 L 4.765625 -4.125 L 10.40625 -4.125 L 10.40625 -23.875 L 4.765625 -23.875 L 4.765625 -28 L 20.359375 -28 L 20.359375 -23.875 L 14.71875 -23.875 L 14.71875 -4.125 L 20.359375 -4.125 Z M 20.359375 0 "/></g></g></g><g fill="#3a5c85" fill-opacity="1"><g transform="translate(416.767192, 619.789021)"><g><path d="M 25.921875 0 L 23.046875 -6.796875 L 9.4375 -6.796875 L 6.515625 0 L 2.078125 0 L 14.046875 -28 L 18.71875 -28 L 30.59375 0 Z M 14.078125 -17.6875 L 11.203125 -10.953125 L 21.28125 -10.953125 L 18.3125 -17.84375 C 17.96875 -18.71875 17.625 -19.613281 17.28125 -20.53125 C 16.9375 -21.457031 16.585938 -22.414062 16.234375 -23.40625 C 15.867188 -22.382812 15.507812 -21.394531 15.15625 -20.4375 C 14.8125 -19.476562 14.453125 -18.5625 14.078125 -17.6875 Z M 14.078125 -17.6875 "/></g></g></g><g fill="#3a5c85" fill-opacity="1"><g transform="translate(451.803942, 619.789021)"><g><path d="M 24.953125 -4.15625 L 24.953125 0 L 5.28125 0 L 5.28125 -28 L 9.59375 -28 L 9.59375 -4.15625 Z M 24.953125 -4.15625 "/></g></g></g><g fill="#3a5c85" fill-opacity="1"><g transform="translate(482.921089, 619.789021)"><g/></g></g><g fill="#3a5c85" fill-opacity="1"><g transform="translate(499.759627, 619.789021)"><g><path d="M 18.796875 -28.234375 C 20.554688 -28.234375 22.1875 -28.003906 23.6875 -27.546875 C 25.195312 -27.097656 26.523438 -26.515625 27.671875 -25.796875 C 28.828125 -25.078125 29.738281 -24.304688 30.40625 -23.484375 L 27.59375 -20.484375 C 26.394531 -21.523438 25.054688 -22.378906 23.578125 -23.046875 C 22.097656 -23.710938 20.503906 -24.046875 18.796875 -24.046875 C 16.691406 -24.046875 14.796875 -23.601562 13.109375 -22.71875 C 11.429688 -21.84375 10.109375 -20.648438 9.140625 -19.140625 C 8.171875 -17.628906 7.6875 -15.914062 7.6875 -14 C 7.6875 -11.914062 8.203125 -10.109375 9.234375 -8.578125 C 10.273438 -7.046875 11.632812 -5.863281 13.3125 -5.03125 C 15 -4.207031 16.828125 -3.796875 18.796875 -3.796875 C 20.453125 -3.796875 21.976562 -4.0625 23.375 -4.59375 C 24.78125 -5.132812 25.910156 -5.863281 26.765625 -6.78125 C 27.617188 -7.695312 28.046875 -8.753906 28.046875 -9.953125 L 18.71875 -9.953125 L 18.71875 -14.203125 L 32.5625 -14.203125 C 32.613281 -13.859375 32.660156 -13.5 32.703125 -13.125 C 32.742188 -12.75 32.765625 -12.390625 32.765625 -12.046875 C 32.765625 -10.578125 32.535156 -9.160156 32.078125 -7.796875 C 31.628906 -6.441406 30.976562 -5.28125 30.125 -4.3125 C 28.945312 -2.851562 27.363281 -1.703125 25.375 -0.859375 C 23.394531 -0.015625 21.125 0.40625 18.5625 0.40625 C 16.457031 0.40625 14.476562 0.0664062 12.625 -0.609375 C 10.769531 -1.296875 9.132812 -2.269531 7.71875 -3.53125 C 6.300781 -4.800781 5.191406 -6.320312 4.390625 -8.09375 C 3.597656 -9.875 3.203125 -11.84375 3.203125 -14 C 3.203125 -16.03125 3.59375 -17.90625 4.375 -19.625 C 5.164062 -21.34375 6.273438 -22.847656 7.703125 -24.140625 C 9.128906 -25.429688 10.785156 -26.4375 12.671875 -27.15625 C 14.566406 -27.875 16.609375 -28.234375 18.796875 -28.234375 Z M 18.796875 -28.234375 "/></g></g></g><g fill="#3a5c85" fill-opacity="1"><g transform="translate(537.796055, 619.789021)"><g><path d="M 27.875 -19.203125 C 27.875 -17.390625 27.328125 -15.742188 26.234375 -14.265625 C 25.140625 -12.785156 23.742188 -11.710938 22.046875 -11.046875 L 29.234375 0.046875 L 23.921875 0 L 17.234375 -10.4375 L 9.59375 -10.4375 L 9.59375 0 L 5.28125 0 L 5.28125 -28 L 18.953125 -28 C 20.472656 -28 21.910156 -27.628906 23.265625 -26.890625 C 24.628906 -26.160156 25.738281 -25.128906 26.59375 -23.796875 C 27.445312 -22.460938 27.875 -20.929688 27.875 -19.203125 Z M 18.046875 -23.84375 L 9.59375 -23.84375 L 9.59375 -14.59375 L 18.71875 -14.59375 C 19.65625 -14.59375 20.472656 -14.804688 21.171875 -15.234375 C 21.878906 -15.660156 22.425781 -16.226562 22.8125 -16.9375 C 23.207031 -17.644531 23.40625 -18.410156 23.40625 -19.234375 C 23.40625 -20.140625 23.160156 -20.941406 22.671875 -21.640625 C 22.191406 -22.335938 21.546875 -22.878906 20.734375 -23.265625 C 19.921875 -23.648438 19.023438 -23.84375 18.046875 -23.84375 Z M 18.046875 -23.84375 "/></g></g></g><g fill="#3a5c85" fill-opacity="1"><g transform="translate(572.592822, 619.789021)"><g><path d="M 33.203125 -14 C 33.203125 -11.96875 32.832031 -10.078125 32.09375 -8.328125 C 31.363281 -6.585938 30.320312 -5.0625 28.96875 -3.75 C 27.625 -2.445312 26.039062 -1.425781 24.21875 -0.6875 C 22.394531 0.0390625 20.390625 0.40625 18.203125 0.40625 C 16.015625 0.40625 14 0.0390625 12.15625 -0.6875 C 10.320312 -1.425781 8.738281 -2.445312 7.40625 -3.75 C 6.070312 -5.0625 5.035156 -6.585938 4.296875 -8.328125 C 3.566406 -10.078125 3.203125 -11.96875 3.203125 -14 C 3.203125 -16.03125 3.566406 -17.914062 4.296875 -19.65625 C 5.035156 -21.40625 6.070312 -22.929688 7.40625 -24.234375 C 8.738281 -25.546875 10.320312 -26.566406 12.15625 -27.296875 C 14 -28.035156 16.015625 -28.40625 18.203125 -28.40625 C 20.390625 -28.40625 22.394531 -28.035156 24.21875 -27.296875 C 26.039062 -26.566406 27.625 -25.546875 28.96875 -24.234375 C 30.320312 -22.929688 31.363281 -21.40625 32.09375 -19.65625 C 32.832031 -17.914062 33.203125 -16.03125 33.203125 -14 Z M 28.796875 -14 C 28.796875 -15.945312 28.34375 -17.6875 27.4375 -19.21875 C 26.53125 -20.75 25.273438 -21.960938 23.671875 -22.859375 C 22.078125 -23.753906 20.253906 -24.203125 18.203125 -24.203125 C 16.097656 -24.203125 14.25 -23.753906 12.65625 -22.859375 C 11.070312 -21.960938 9.832031 -20.75 8.9375 -19.21875 C 8.039062 -17.6875 7.59375 -15.945312 7.59375 -14 C 7.59375 -12.050781 8.039062 -10.3125 8.9375 -8.78125 C 9.832031 -7.25 11.070312 -6.035156 12.65625 -5.140625 C 14.25 -4.242188 16.097656 -3.796875 18.203125 -3.796875 C 20.253906 -3.796875 22.078125 -4.242188 23.671875 -5.140625 C 25.273438 -6.035156 26.53125 -7.253906 27.4375 -8.796875 C 28.34375 -10.347656 28.796875 -12.082031 28.796875 -14 Z M 28.796875 -14 "/></g></g></g><g fill="#3a5c85" fill-opacity="1"><g transform="translate(611.349198, 619.789021)"><g><path d="M 29.640625 -28.046875 L 29.640625 -11.796875 C 29.640625 -9.472656 29.113281 -7.40625 28.0625 -5.59375 C 27.007812 -3.78125 25.546875 -2.351562 23.671875 -1.3125 C 21.804688 -0.28125 19.660156 0.234375 17.234375 0.234375 C 14.785156 0.234375 12.632812 -0.28125 10.78125 -1.3125 C 8.925781 -2.351562 7.472656 -3.78125 6.421875 -5.59375 C 5.367188 -7.40625 4.84375 -9.472656 4.84375 -11.796875 L 4.84375 -28.046875 L 9.15625 -28.046875 L 9.15625 -12.078125 C 9.15625 -10.503906 9.519531 -9.101562 10.25 -7.875 C 10.988281 -6.65625 11.972656 -5.691406 13.203125 -4.984375 C 14.429688 -4.273438 15.773438 -3.921875 17.234375 -3.921875 C 18.753906 -3.921875 20.140625 -4.273438 21.390625 -4.984375 C 22.648438 -5.691406 23.648438 -6.65625 24.390625 -7.875 C 25.140625 -9.101562 25.515625 -10.503906 25.515625 -12.078125 L 25.515625 -28.046875 Z M 29.640625 -28.046875 "/></g></g></g><g fill="#3a5c85" fill-opacity="1"><g transform="translate(648.185759, 619.789021)"><g><path d="M 18.640625 -28 C 20.179688 -28 21.601562 -27.617188 22.90625 -26.859375 C 24.21875 -26.097656 25.265625 -25.070312 26.046875 -23.78125 C 26.835938 -22.488281 27.234375 -21.03125 27.234375 -19.40625 C 27.234375 -17.75 26.828125 -16.253906 26.015625 -14.921875 C 25.203125 -13.585938 24.125 -12.523438 22.78125 -11.734375 C 21.4375 -10.953125 19.945312 -10.5625 18.3125 -10.5625 L 9.59375 -10.5625 L 9.59375 0 L 5.28125 0 L 5.28125 -28 Z M 18.125 -14.71875 C 18.945312 -14.71875 19.710938 -14.929688 20.421875 -15.359375 C 21.128906 -15.785156 21.695312 -16.351562 22.125 -17.0625 C 22.550781 -17.769531 22.765625 -18.550781 22.765625 -19.40625 C 22.765625 -20.226562 22.550781 -20.972656 22.125 -21.640625 C 21.695312 -22.304688 21.128906 -22.835938 20.421875 -23.234375 C 19.710938 -23.640625 18.945312 -23.84375 18.125 -23.84375 L 9.59375 -23.84375 L 9.59375 -14.71875 Z M 18.125 -14.71875 "/></g></g></g></svg>